<?xml version="1.0" standalone="no"?>
<!DOCTYPE svg PUBLIC "-//W3C//DTD SVG 20010904//EN"
 "http://www.w3.org/TR/2001/REC-SVG-20010904/DTD/svg10.dtd">
<svg version="1.0" xmlns="http://www.w3.org/2000/svg"
 width="16.000000pt" height="16.000000pt" viewBox="0 0 16.000000 16.000000"
 preserveAspectRatio="xMidYMid meet">
<metadata>
Created by potrace 1.11, written by Peter Selinger 2001-2013
</metadata>
<g transform="translate(0.000000,16.000000) scale(0.002286,-0.002286)"
fill="#000000" stroke="none">
<path d="M2090 5465 c-299 -62 -562 -220 -747 -450 -123 -153 -230 -387 -257
-560 -4 -22 -9 -53 -12 -70 -9 -52 -11 -185 -3 -244 5 -31 19 -94 32 -140 l25
-84 -20 -68 c-22 -80 -96 -245 -178 -399 -9 -17 -22 -49 -40 -96 -37 -99 8
-161 129 -180 36 -6 41 -10 41 -33 -1 -14 -9 -55 -19 -91 -17 -60 -17 -67 -3
-92 9 -16 21 -28 27 -28 28 0 32 -22 11 -60 -20 -37 -20 -40 -4 -74 10 -19 38
-49 66 -68 46 -32 48 -34 41 -68 -4 -19 -7 -73 -6 -120 3 -100 21 -145 79
-194 68 -59 141 -73 348 -66 123 4 239 -42 440 -176 191 -126 407 -306 646
-536 l60 -59 0 656 0 655 -35 11 c-20 6 -69 29 -109 51 l-73 40 -112 -67 c-62
-37 -119 -68 -127 -68 -8 0 -23 1 -33 2 -21 1 -286 262 -288 283 -3 34 6 56
52 127 27 42 58 93 69 113 l20 38 -26 52 c-15 29 -37 82 -50 117 -27 73 -25
70 -53 76 -11 3 -29 7 -38 10 -10 2 -55 13 -101 25 -103 25 -118 32 -129 67
-14 42 -9 373 5 400 13 24 26 28 188 64 l101 22 23 66 c13 36 36 92 51 124
l27 58 -69 113 c-45 73 -69 124 -69 143 0 25 22 52 135 165 82 82 146 138 161
141 18 3 54 -14 137 -66 62 -38 117 -70 122 -70 6 0 35 12 65 26 30 15 84 37
120 51 l65 24 34 135 c30 122 36 137 61 149 19 9 74 13 188 12 89 0 162 0 162
2 0 2 -59 38 -120 71 -98 54 -307 121 -433 138 -27 4 -59 9 -70 12 -12 3 -107
6 -212 7 -162 2 -205 0 -295 -19z"/>
<path d="M3518 5128 c-6 -21 -2 -743 4 -754 5 -7 88 -11 131 -5 4 1 7 123 6
272 0 149 1 273 4 275 2 2 15 -11 28 -31 13 -19 26 -35 29 -35 3 0 16 18 30
40 l25 40 5 -282 5 -282 60 -1 c33 0 65 1 70 2 6 2 9 134 8 376 -1 204 -2 378
-2 385 -1 8 -22 12 -70 12 l-69 0 -29 -45 c-15 -25 -30 -45 -33 -45 -3 0 -18
20 -33 45 l-29 45 -68 0 c-46 0 -69 -4 -72 -12z"/>
<path d="M4104 5093 c-4 -27 -8 -50 -9 -53 0 -3 -5 -27 -10 -55 -5 -27 -9 -52
-10 -55 0 -3 -5 -27 -10 -55 -4 -27 -9 -54 -11 -60 -3 -15 -75 -418 -77 -434
-2 -11 14 -15 66 -16 65 -1 68 0 73 25 3 14 7 30 8 35 2 6 30 10 64 11 l62 1
10 -37 10 -36 65 2 c36 1 68 3 70 6 2 2 -4 46 -14 98 -11 52 -22 111 -25 130
-3 19 -8 46 -11 60 -5 26 -72 390 -82 448 l-6 32 -77 0 -78 0 -8 -47z m94
-355 c1 -26 23 -142 27 -149 4 -6 -62 -19 -68 -12 -2 2 26 148 32 171 2 7 8 0
9 -10z"/>
<path d="M4613 5121 c-75 -19 -127 -63 -148 -122 -36 -100 0 -178 118 -258 75
-51 127 -108 127 -140 0 -57 -60 -91 -160 -91 l-57 0 0 -70 1 -70 58 0 c131 0
226 44 274 126 68 116 13 238 -158 355 -63 43 -80 65 -72 97 7 24 43 41 99 45
l40 4 0 69 0 69 -30 1 c-16 1 -58 -6 -92 -15z"/>
<path d="M4820 5070 c0 -39 4 -70 10 -71 6 -1 32 -2 59 -2 27 -1 53 -5 57 -9
3 -4 7 -145 6 -313 0 -168 3 -305 7 -306 25 -4 124 -3 129 1 4 3 7 145 7 315
l0 310 55 0 c30 0 60 4 67 8 7 5 11 30 10 70 l-2 62 -202 3 -203 2 0 -70z"/>
<path d="M5259 5138 c-1 -2 -2 -175 -3 -385 -1 -333 1 -382 14 -385 8 -2 98
-3 200 -3 l185 1 3 72 3 72 -126 -1 c-69 -1 -128 1 -131 4 -4 3 -7 22 -8 41
l-1 35 69 3 69 3 0 60 c-1 33 -1 65 -2 70 -1 7 -27 10 -66 9 -36 -1 -65 3 -66
7 0 5 -1 61 -1 124 0 63 1 119 1 124 1 4 58 8 129 7 l127 0 3 72 3 72 -201 0
c-110 0 -201 -1 -201 -2z"/>
<path d="M5689 5129 c-3 -11 -3 -692 0 -749 1 -13 14 -16 69 -15 l67 1 5 63 5
64 25 -33 c72 -94 72 -94 154 -95 42 0 76 3 76 8 0 4 -32 46 -70 92 l-70 84
49 46 c70 65 96 128 96 235 0 71 -4 94 -26 140 -31 64 -76 113 -133 143 -52
26 -240 39 -247 16z m207 -168 c38 -23 64 -77 66 -134 1 -60 -27 -109 -79
-136 -52 -27 -53 -23 -53 139 0 167 2 170 66 131z"/>
<path d="M3010 4350 c-236 -29 -404 -226 -402 -471 0 -49 4 -94 8 -101 5 -7
10 -21 11 -31 6 -40 64 -135 111 -183 185 -188 481 -189 665 -2 144 147 177
351 86 535 -85 176 -279 278 -479 253z"/>
<path d="M4309 4022 l-56 -3 1 -769 c1 -424 -1 -771 -4 -771 -17 -5 -390 -4
-391 0 -1 3 -3 143 -4 311 -1 168 -3 307 -4 309 0 2 -20 -14 -43 -36 -93 -85
-230 -167 -353 -212 l-60 -22 0 -657 1 -657 230 -3 229 -2 0 252 0 253 198 0
c191 0 197 0 198 -20 0 -11 1 -125 1 -252 l1 -233 229 0 228 0 0 83 c1 130 1
2348 1 2392 l-1 40 -172 0 c-95 0 -198 -1 -229 -3z"/>
<path d="M4853 4022 l-43 -3 0 -1255 0 -1254 230 0 230 0 0 922 0 921 78 -114
c42 -64 87 -128 98 -144 l21 -29 31 45 c18 24 35 49 39 54 5 6 35 50 67 98 33
48 60 87 61 87 0 0 1 -413 1 -917 l-1 -918 228 -3 c125 -1 228 1 228 5 1 5 2
569 3 1256 l1 1247 -80 1 c-76 0 -300 0 -356 -1 -22 0 -40 -22 -123 -150 l-99
-150 -98 150 -99 150 -53 1 c-28 0 -113 1 -187 2 -74 1 -154 1 -177 -1z"/>
<path d="M2841 2158 l0 -648 230 0 229 0 0 646 0 646 -42 -7 c-77 -13 -287
-13 -353 0 l-64 12 0 -649z"/>
</g>
</svg>
