<?xml version="1.0" encoding="utf-8"?>
<!-- Generator: Adobe Illustrator 18.1.1, SVG Export Plug-In . SVG Version: 6.00 Build 0)  -->
<svg version="1.1" id="Calque_1" xmlns="http://www.w3.org/2000/svg" xmlns:xlink="http://www.w3.org/1999/xlink" x="0px" y="0px"
	 viewBox="0 0 400 400" style="enable-background:new 0 0 400 400;" xml:space="preserve">
<style type="text/css">
	.st0{fill:none;}
</style>
<g>
	<path d="M198.8,251.1c-12.7,0-24.4-5.8-34.7-17.2c-1-1.1-0.9-2.8,0.2-3.8c1.1-1,2.8-0.9,3.8,0.2c9.2,10.2,19.6,15.4,30.7,15.4
		c12.9,0,23.7-8.7,30.5-16.1c1-1.1,2.7-1.2,3.8-0.1c1.1,1,1.2,2.7,0.1,3.8C222.5,245,210.6,251.1,198.8,251.1z"/>
	<path d="M253.9,173.1c-0.2,0-0.3,0-0.5,0c-11.8-2-14.5-14.6-16.8-25.8l-0.2-0.9c-0.3-1.5,0.6-2.9,2.1-3.2c1.5-0.3,2.9,0.6,3.2,2.1
		l0.2,0.9c2.1,9.9,4.2,20.2,12.4,21.5c1.5,0.2,2.5,1.7,2.2,3.1C256.4,172.1,255.2,173.1,253.9,173.1z"/>
	<path d="M145.1,172.8c-1.4,0-2.6-1.1-2.7-2.5c-0.1-1.5,1-2.8,2.5-2.9c3.9-0.3,7.5-8.7,9.1-21.3c0.1-0.5,0.1-0.8,0.1-0.8
		c0.4-1.4,1.9-2.3,3.4-1.8c1.3,0.4,2.2,1.7,1.9,3.1c-1.5,11.8-5.1,25.7-14.1,26.4C145.2,172.8,145.1,172.8,145.1,172.8z"/>
	<path d="M199.6,301.2c-0.6,0-1.3-0.2-1.8-0.7l-59.9-51.7c-1.1-1-1.3-2.7-0.3-3.8c1-1.1,2.7-1.3,3.8-0.3l58.1,50.1l57.2-51.1
		c1.1-1,2.8-0.9,3.8,0.2c1,1.1,0.9,2.8-0.2,3.8l-58.9,52.7C200.9,301,200.2,301.2,199.6,301.2z"/>
	<path d="M255.5,148H141.2c-1.5,0-2.7-1.2-2.7-2.7s1.2-2.7,2.7-2.7h114.3c1.5,0,2.7,1.2,2.7,2.7S257,148,255.5,148z"/>
	<path d="M336.5,326.3h-273c-1.5,0-2.9-0.7-3.8-1.9c-0.9-1.2-1.2-2.7-0.8-4.2c3.9-14.5,13.7-48.8,19.4-54.3
		c2.5-2.4,29.4-13.6,79.9-33.3c-10.2-13.6-15-29-16.8-35.6c-3.9-3.6-6.7-9.8-7.1-16c-0.4-5.6,1.3-10.6,4.7-14.5
		c-0.5-7.1-3.4-33.6-5.6-51.9l-40.6-10.9c-2.2-0.6-3.6-2.6-3.6-4.8c0.1-2.2,1.7-4.1,3.9-4.6l105.1-20.7c0.6-0.1,1.2-0.1,1.9,0
		l104.5,20.7c2.2,0.4,3.8,2.3,3.9,4.6c0.1,2.2-1.4,4.2-3.6,4.8l-42.2,11c-1.3,18.1-3.1,44-3.2,50.8c3.2,3.5,4.8,8.4,4.6,14
		c-0.2,6.6-3,13.5-6.7,17.2c-2.5,9.7-8.7,23.2-18,34.9c24.7,8.9,78.7,28.7,84.6,33.8c6.4,5.6,14.1,40.3,17.1,55c0.3,1.4-0.1,2.9-1,4
		C339.3,325.7,338,326.3,336.5,326.3z M69.8,316.7h260.8c-4.3-19.8-10.1-40.9-12.9-44c-4.3-3.4-48.6-20.2-88-34.3
		c-1.5-0.5-2.7-1.8-3-3.4c-0.4-1.6,0-3.2,1.1-4.4c11.1-11.9,18.5-27.8,20.7-37.5c0.3-1.1,0.9-2.2,1.9-2.8c1.4-1,4-5.6,4.2-11
		c0.1-2.5-0.3-5.8-2.8-7.8c-2.5-2.1-2.7-2.2,1.7-60.7c0.2-2,1.6-3.8,3.6-4.3l25.3-6.6l-83.1-16.5l-83.9,16.5l23.1,6.2
		c0.7,0.2,1.3,0.5,1.9,1l0.7,0.6c0.9,0.8,1.5,1.9,1.6,3.1c6.9,59.1,6.9,59.1,4.4,61.4c-2.3,2.1-3.4,4.9-3.2,8.4
		c0.3,4.7,2.8,8.7,4.5,9.9c1,0.7,1.7,1.7,2,2.8c1.3,5.4,6.5,24.1,19.3,38.3c1.1,1.2,1.5,2.8,1.1,4.3c-0.4,1.5-1.5,2.8-2.9,3.4
		c-29.4,11.4-77.4,30.5-83,33.8C82.1,276.5,75.3,297.2,69.8,316.7z"/>
	<path d="M197.6,129.6c-0.3,0-0.5,0-0.8-0.1l-63.6-18.8c-1.4-0.4-2.3-1.9-1.8-3.4c0.4-1.4,1.9-2.3,3.4-1.8l62.8,18.6l60-17.4
		c1.4-0.4,3,0.4,3.4,1.9s-0.4,3-1.9,3.4l-60.7,17.6C198.1,129.5,197.8,129.6,197.6,129.6z"/>
	<rect x="90.1" y="99.8" width="8.1" height="57.6"/>
	<path d="M104.6,182.6C104.6,182.6,104.6,182.6,104.6,182.6H83.8c-0.9,0-1.7-0.4-2.2-1.1c-0.5-0.7-0.7-1.6-0.4-2.4l10.4-31.7
		c0.4-1.1,1.4-1.9,2.6-1.9c1.2,0,2.2,0.8,2.6,1.9l10.2,31.2c0.2,0.4,0.4,0.9,0.4,1.4C107.3,181.3,106.1,182.6,104.6,182.6z
		 M87.6,177.1h13.2l-6.6-20.2L87.6,177.1z"/>
</g>
<rect class="st0" width="400" height="400"/>
</svg>
