<?xml version="1.0" encoding="utf-8"?>
<!-- Generator: Adobe Illustrator 18.1.1, SVG Export Plug-In . SVG Version: 6.00 Build 0)  -->
<svg version="1.1" id="Calque_1" xmlns="http://www.w3.org/2000/svg" xmlns:xlink="http://www.w3.org/1999/xlink" x="0px" y="0px"
	 viewBox="0 0 400 400" enable-background="new 0 0 400 400" xml:space="preserve">
<g>
	<g>
		<g>
			<path fill="#0166A2" d="M370.4,0H29.5C13.4,0,0,13.1,0,28.9v342.2C0,386.9,13.4,400,29.5,400h340.8c16.4,0,29.7-13.1,29.7-28.9
				V28.9C399.9,13.1,386.6,0,370.4,0z"/>
			<path fill="#FFFFFF" d="M59.1,150h59.5v190.9H59.1L59.1,150L59.1,150z M88.9,55.3c18.8,0,34.5,15.2,34.5,34.5
				c0,18.8-15.2,34.5-34.5,34.5c-18.8,0-34.5-15.2-34.5-34.5S70.1,55.3,88.9,55.3"/>
			<path fill="#FFFFFF" d="M155.9,150h56.9v26.1h0.9c8.1-15,27.2-30.9,56.1-30.9c60,0,71.1,39.4,71.1,90.8v104.8h-59.2v-92.7
				c0-22.3-0.3-50.6-30.9-50.6c-30.9,0-35.5,24.2-35.5,48.9v94.4h-59.5L155.9,150L155.9,150z"/>
		</g>
	</g>
</g>
</svg>
