<svg id="Calque_1" data-name="Calque 1" xmlns="http://www.w3.org/2000/svg" viewBox="0 0 1118.26 652.32">
  <defs>
    <style>
      .cls-1 {
        fill: #fcea19;
      }

      .cls-2 {
        fill: #fff;
      }
    </style>
  </defs>
  <title>slideb1</title>
  <rect id="_Rectangle_" data-name="&lt;Rectangle&gt;" class="cls-1" width="1118.26" height="652.32"/>
  <g id="_Groupe_" data-name="&lt;Groupe&gt;">
    <path d="M153.33,188.28h5.49V215h13.36v5.67H153.33Z" transform="translate(-0.11 0.36)"/>
    <path d="M175.87,220.62V188.28h19.56V194H181.37v6.94h12.94v5.58H181.37V215H196v5.67Z" transform="translate(-0.11 0.36)"/>
    <path d="M210.74,220.62V188.28h12a9,9,0,0,1,7.93,4.22q2.82,4.22,2.81,11.2,0,7.35-2.92,12.13a9.13,9.13,0,0,1-8.26,4.79Zm5.5-5.67h5.4a5.1,5.1,0,0,0,4.57-2.79c1.12-1.87,1.67-4.49,1.67-7.86q0-10.35-6.19-10.35h-5.45Z" transform="translate(-0.11 0.36)"/>
    <path d="M237.37,220.62V188.28h19.56V194H242.87v6.94h12.94v5.58H242.87V215h14.65v5.67Z" transform="translate(-0.11 0.36)"/>
    <path d="M271.3,212.78l5.63-24.5h5.73l-8.79,32.34h-5.23l-8.79-32.34h5.91Z" transform="translate(-0.11 0.36)"/>
    <path d="M286.59,220.62V188.28h19.56V194H292.09v6.94H305v5.58H292.09V215h14.65v5.67Z" transform="translate(-0.11 0.36)"/>
    <path d="M310.94,188.28h5.82l10.7,22.61V188.28h5.14v32.34H327l-10.94-23.24v23.24h-5.14Z" transform="translate(-0.11 0.36)"/>
    <path d="M337.31,188.28h5.49v32.34h-5.49Z" transform="translate(-0.11 0.36)"/>
    <path d="M370.2,220.62h-6.09a45.62,45.62,0,0,1-.59-8,5.23,5.23,0,0,0-.95-3.6,4.29,4.29,0,0,0-3.2-1h-5.78v12.63h-5.5V188.28h13.39a7.51,7.51,0,0,1,6.06,2.59,9.72,9.72,0,0,1,2.22,6.55q0,6-4.11,7.69a9.49,9.49,0,0,1,1.52,1.06,5.56,5.56,0,0,1,.94,1.2,9.81,9.81,0,0,1,.7,3.89c.11,2,.2,3.7.27,5.17,0,.7.09,1.35.17,1.95a1.85,1.85,0,0,0,.95,1.36Zm-6-22.54q0-4.12-4-4.13h-6.61v8.46h6.24Q364.18,202.41,364.18,198.08Z" transform="translate(-0.11 0.36)"/>
    <path d="M385,220.62V188.28h12a9,9,0,0,1,7.93,4.22q2.82,4.22,2.82,11.2,0,7.35-2.93,12.13a9.12,9.12,0,0,1-8.26,4.79Zm5.49-5.67h5.4a5.13,5.13,0,0,0,4.58-2.79,15.46,15.46,0,0,0,1.67-7.86q0-10.35-6.2-10.35h-5.45Z" transform="translate(-0.11 0.36)"/>
    <path d="M411.62,220.62V188.28h19.55V194H417.11v6.94h12.94v5.58H417.11V215h14.66v5.67Z" transform="translate(-0.11 0.36)"/>
    <path d="M440.12,210.56a5.35,5.35,0,0,0,1.42,3.85,5.67,5.67,0,0,0,4.24,1.47q5.6,0,5.59-4.11a3.34,3.34,0,0,0-2.62-3.36c-1.73-.57-4.17-1.31-7.34-2.2a8.24,8.24,0,0,1-4.88-3.16,11.67,11.67,0,0,1,1.23-12.86q2.64-2.74,7.61-2.75c3.41,0,6,1,7.82,3a10.87,10.87,0,0,1,2.7,7.51h-5.32q-.48-5-5.42-5a5.45,5.45,0,0,0-3.47,1,3.29,3.29,0,0,0-1.3,2.77,3.14,3.14,0,0,0,2,3,55.05,55.05,0,0,0,7.1,2.42c2.69.81,4.55,1.89,5.56,3.25a8.65,8.65,0,0,1,1.54,5.32c0,3.37-1,6-2.86,7.87a10.55,10.55,0,0,1-7.71,2.81,11.66,11.66,0,0,1-8.22-2.79q-3-2.82-3-8.11Z" transform="translate(-0.11 0.36)"/>
    <path d="M471.1,220.62V188.28h12A9,9,0,0,1,491,192.5q2.82,4.22,2.82,11.2,0,7.35-2.93,12.13a9.12,9.12,0,0,1-8.26,4.79Zm5.49-5.67H482a5.13,5.13,0,0,0,4.57-2.79,15.46,15.46,0,0,0,1.67-7.86q0-10.35-6.2-10.35h-5.45Z" transform="translate(-0.11 0.36)"/>
    <path d="M497.2,188.28h5.49v32.34H497.2Z" transform="translate(-0.11 0.36)"/>
    <path d="M508,188.28H520.1a7.11,7.11,0,0,1,6,2.83,13.87,13.87,0,0,1,0,15,7.14,7.14,0,0,1-6,2.9h-6.57v11.62H508Zm5.49,5.67v9.47h4.95c2.82,0,4.24-1.66,4.24-5a4.62,4.62,0,0,0-1.08-3.4A4.94,4.94,0,0,0,518,194Z" transform="translate(-0.11 0.36)"/>
    <path d="M532.6,188.28h5.49V215h13.36v5.67H532.6Z" transform="translate(-0.11 0.36)"/>
    <path d="M553.93,204.45q0-7.89,3.37-12.43a11.92,11.92,0,0,1,18.83.06q3.42,4.62,3.42,12.37t-3.42,12.44a11.92,11.92,0,0,1-18.81,0Q553.93,212.24,553.93,204.45Zm5.59.09a15.69,15.69,0,0,0,1.84,8,6,6,0,0,0,5.45,3.12,5.86,5.86,0,0,0,5.27-3,15.36,15.36,0,0,0,1.89-8.11,16.21,16.21,0,0,0-1.82-8.06,5.76,5.76,0,0,0-5.34-3.28,5.89,5.89,0,0,0-5.49,3.25A16.47,16.47,0,0,0,559.52,204.54Zm.63-19.56,4.22-6.68H569l4.22,6.68H569l-2.35-3.71L564.35,185Z" transform="translate(-0.11 0.36)"/>
    <path d="M583.6,188.28h8.06l5.06,25.4,4.61-25.4h8.06v32.34h-5.14V193.71l-5,26.91h-5.41l-5-26.91v26.91H583.6Z" transform="translate(-0.11 0.36)"/>
    <path d="M614.6,220.62V188.28h19.56V194H620.09v6.94H633v5.58H620.09V215h14.66v5.67ZM622.49,185,626,178.3h5.65L626.18,185Z" transform="translate(-0.11 0.36)"/>
    <path d="M637.43,205.07h10.2v5.84h-10.2Z" transform="translate(-0.11 0.36)"/>
    <path d="M651.49,220.62V188.28h19.56V194H657v6.94h12.94v5.58H657V215h14.65v5.67Z" transform="translate(-0.11 0.36)"/>
    <path d="M674.32,205.07h10.2v5.84h-10.2Z" transform="translate(-0.11 0.36)"/>
    <path d="M692.27,210.56a5.36,5.36,0,0,0,1.43,3.85,5.67,5.67,0,0,0,4.24,1.47q5.58,0,5.58-4.11a3.33,3.33,0,0,0-2.61-3.36c-1.73-.57-4.17-1.31-7.34-2.2a8.24,8.24,0,0,1-4.88-3.16,11.67,11.67,0,0,1,1.23-12.86q2.64-2.74,7.61-2.75c3.41,0,6,1,7.82,3a10.87,10.87,0,0,1,2.7,7.51h-5.32q-.48-5-5.42-5a5.5,5.5,0,0,0-3.48,1,3.31,3.31,0,0,0-1.29,2.77,3.14,3.14,0,0,0,2,3,55.05,55.05,0,0,0,7.1,2.42q4,1.22,5.56,3.25a8.65,8.65,0,0,1,1.53,5.32q0,5.06-2.85,7.87a10.55,10.55,0,0,1-7.71,2.81,11.66,11.66,0,0,1-8.22-2.79q-3-2.82-3-8.11Z" transform="translate(-0.11 0.36)"/>
    <path d="M723.26,220.62V188.28h12a9,9,0,0,1,7.93,4.22q2.82,4.22,2.82,11.2,0,7.35-2.93,12.13a9.12,9.12,0,0,1-8.26,4.79Zm5.49-5.67h5.4a5.1,5.1,0,0,0,4.57-2.79c1.12-1.87,1.67-4.49,1.67-7.86q0-10.35-6.19-10.35h-5.45Z" transform="translate(-0.11 0.36)"/>
    <path d="M749.71,188.28h5.49v21.2q0,6.22,4.77,6.22c3.71,0,5.56-2,5.56-6.11V188.28H771v21q0,12.17-10.83,12.17a10.12,10.12,0,0,1-7.64-3q-2.84-2.94-2.84-8.85Z" transform="translate(-0.11 0.36)"/>
    <path d="M786.52,188.28h8.06l5,25.4,4.62-25.4h8.06v32.34h-5.14V193.71l-5,26.91h-5.41l-5.05-26.91v26.91h-5.14Z" transform="translate(-0.11 0.36)"/>
    <path d="M815.36,220.62l9.5-32.34h6.35l9.49,32.34h-6L833,213.88h-9.89l-1.89,6.74Zm9.21-12.32h6.77L828,195.73Z" transform="translate(-0.11 0.36)"/>
    <path d="M848,210.56a5.32,5.32,0,0,0,1.43,3.85,5.64,5.64,0,0,0,4.24,1.47q5.58,0,5.58-4.11a3.33,3.33,0,0,0-2.62-3.36c-1.72-.57-4.17-1.31-7.34-2.2a8.22,8.22,0,0,1-4.87-3.16,11.62,11.62,0,0,1,1.23-12.86q2.64-2.74,7.6-2.75c3.41,0,6,1,7.82,3a10.88,10.88,0,0,1,2.71,7.51H858.5q-.48-5-5.43-5a5.45,5.45,0,0,0-3.47,1,3.29,3.29,0,0,0-1.3,2.77,3.15,3.15,0,0,0,2,3,55.62,55.62,0,0,0,7.1,2.42q4.05,1.22,5.56,3.25a8.59,8.59,0,0,1,1.54,5.32q0,5.06-2.86,7.87a10.52,10.52,0,0,1-7.71,2.81,11.66,11.66,0,0,1-8.22-2.79q-3-2.82-3-8.11Z" transform="translate(-0.11 0.36)"/>
    <path d="M866.28,188.28h21.66V194h-8.08v26.67h-5.5V194h-8.08Z" transform="translate(-0.11 0.36)"/>
    <path d="M891.3,220.62V188.28h19.56V194H896.8v6.94h12.94v5.58H896.8V215h14.65v5.67Z" transform="translate(-0.11 0.36)"/>
    <path d="M938,220.62h-6.09a44.68,44.68,0,0,1-.59-8,5.23,5.23,0,0,0-1-3.6,4.31,4.31,0,0,0-3.21-1h-5.77v12.63h-5.5V188.28h13.38a7.53,7.53,0,0,1,6.07,2.59,9.72,9.72,0,0,1,2.22,6.55q0,6-4.11,7.69a8.86,8.86,0,0,1,1.51,1.06,5.28,5.28,0,0,1,.95,1.2,9.81,9.81,0,0,1,.7,3.89c.11,2,.19,3.7.27,5.17a18.64,18.64,0,0,0,.17,1.95,1.82,1.82,0,0,0,.95,1.36Zm-6-22.54q0-4.12-4-4.13h-6.61v8.46h6.24Q932,202.41,932,198.08Z" transform="translate(-0.11 0.36)"/>
    <path d="M107.64,242.28h5.49v32.34h-5.49Z" transform="translate(-0.11 0.36)"/>
    <path d="M118.16,242.28H124l10.7,22.61V242.28h5.15v32.34h-5.58l-11-23.24v23.24h-5.14Z" transform="translate(-0.11 0.36)"/>
    <path d="M142.57,242.28h21.67V248h-8.09v26.67h-5.49V248h-8.09Z" transform="translate(-0.11 0.36)"/>
    <path d="M167.6,274.62V242.28h19.56V248H173.09v6.94H186v5.58H173.09V269h14.66v5.67Z" transform="translate(-0.11 0.36)"/>
    <path d="M214.31,274.62h-6.08a44.56,44.56,0,0,1-.6-8c0-1.74-.31-2.94-.94-3.6a4.31,4.31,0,0,0-3.21-1H197.7v12.63h-5.49V242.28h13.38a7.53,7.53,0,0,1,6.07,2.59,9.76,9.76,0,0,1,2.21,6.55q0,6-4.1,7.69a9.3,9.3,0,0,1,1.51,1.06,5.57,5.57,0,0,1,.95,1.2,10,10,0,0,1,.7,3.89c.1,2,.19,3.7.26,5.17a18.53,18.53,0,0,0,.18,1.95,1.84,1.84,0,0,0,.94,1.36Zm-6-22.54q0-4.12-4-4.13H197.7v8.46h6.24Q208.29,256.41,208.29,252.08Z" transform="translate(-0.11 0.36)"/>
    <path d="M216.69,274.62l9.49-32.34h6.35L242,274.62h-6l-1.73-6.74H224.4l-1.89,6.74Zm9.2-12.32h6.77l-3.32-12.57Z" transform="translate(-0.11 0.36)"/>
    <path d="M262.19,263.51h5.58q-1,5.75-3.89,8.85a9.82,9.82,0,0,1-7.58,3.1,10.51,10.51,0,0,1-8.74-4.31q-3.3-4.32-3.3-12.7,0-7.95,3.25-12.48a10.41,10.41,0,0,1,8.88-4.53,10.59,10.59,0,0,1,8.26,3.45,11.76,11.76,0,0,1,3.12,8.16h-5.58a7.73,7.73,0,0,0-1.73-4.27,5,5,0,0,0-3.91-1.58,5.5,5.5,0,0,0-5,3q-1.74,2.94-1.74,8.46,0,5.25,1.7,8.17a5.37,5.37,0,0,0,4.92,2.9Q261.33,269.7,262.19,263.51Z" transform="translate(-0.11 0.36)"/>
    <path d="M269.62,242.28h21.66V248H283.2v26.67h-5.5V248h-8.08Z" transform="translate(-0.11 0.36)"/>
    <path d="M294.12,242.28h5.49v32.34h-5.49Z" transform="translate(-0.11 0.36)"/>
    <path d="M303.7,258.45q0-7.89,3.36-12.43a11.92,11.92,0,0,1,18.83.06q3.44,4.62,3.43,12.37t-3.43,12.44a11.92,11.92,0,0,1-18.81-.05Q303.71,266.24,303.7,258.45Zm5.58.09a15.59,15.59,0,0,0,1.85,8,6.2,6.2,0,0,0,10.72.07,15.36,15.36,0,0,0,1.89-8.11,16.21,16.21,0,0,0-1.83-8.06,5.76,5.76,0,0,0-5.34-3.28,5.89,5.89,0,0,0-5.49,3.25A16.47,16.47,0,0,0,309.28,258.54Z" transform="translate(-0.11 0.36)"/>
    <path d="M333.36,242.28h5.82l10.7,22.61V242.28H355v32.34h-5.58L338.5,251.38v23.24h-5.14Z" transform="translate(-0.11 0.36)"/>
    <path d="M370.25,242.28h5.5v12.26h10.32V242.28h5.5v32.34h-5.5v-14.5H375.75v14.5h-5.5Z" transform="translate(-0.11 0.36)"/>
    <path d="M395.94,258.45q0-7.89,3.36-12.43a11.92,11.92,0,0,1,18.83.06q3.44,4.62,3.43,12.37t-3.43,12.44a11.92,11.92,0,0,1-18.81-.05Q395.95,266.24,395.94,258.45Zm5.58.09a15.68,15.68,0,0,0,1.85,8,6,6,0,0,0,5.45,3.12,5.87,5.87,0,0,0,5.27-3.05,15.36,15.36,0,0,0,1.89-8.11,16.31,16.31,0,0,0-1.82-8.06,5.78,5.78,0,0,0-5.34-3.28,5.9,5.9,0,0,0-5.5,3.25A16.47,16.47,0,0,0,401.52,258.54Z" transform="translate(-0.11 0.36)"/>
    <path d="M425.6,242.28h8.07l5.05,25.4,4.61-25.4h8.07v32.34h-5.14V247.71l-5.06,26.91h-5.4l-5.06-26.91v26.91H425.6Z" transform="translate(-0.11 0.36)"/>
    <path d="M456.34,242.28h8.07l5,25.4,4.61-25.4h8.07v32.34H477V247.71l-5.06,26.91h-5.4l-5.06-26.91v26.91h-5.14Z" transform="translate(-0.11 0.36)"/>
    <path d="M487.35,274.62V242.28H506.9V248H492.84v6.94h12.94v5.58H492.84V269h14.65v5.67Z" transform="translate(-0.11 0.36)"/>
    <path d="M522,242.28H530l5.05,25.4,4.61-25.4h8.07v32.34h-5.14V247.71l-5.06,26.91h-5.4l-5.06-26.91v26.91H522Z" transform="translate(-0.11 0.36)"/>
    <path d="M550.8,274.62l9.5-32.34h6.35l9.49,32.34h-6l-1.74-6.74h-9.88l-1.89,6.74ZM560,262.3h6.77l-3.32-12.57Z" transform="translate(-0.11 0.36)"/>
    <path d="M596.31,263.51h5.58a16.89,16.89,0,0,1-3.89,8.85,9.85,9.85,0,0,1-7.58,3.1,10.53,10.53,0,0,1-8.75-4.31q-3.28-4.32-3.29-12.7,0-7.95,3.25-12.48a10.38,10.38,0,0,1,8.88-4.53,10.59,10.59,0,0,1,8.26,3.45,11.76,11.76,0,0,1,3.12,8.16h-5.58a7.67,7.67,0,0,0-1.74-4.27,5,5,0,0,0-3.91-1.58,5.48,5.48,0,0,0-5,3q-1.74,2.94-1.74,8.46,0,5.25,1.69,8.17a5.39,5.39,0,0,0,4.92,2.9Q595.46,269.7,596.31,263.51Z" transform="translate(-0.11 0.36)"/>
    <path d="M606,242.28h5.5v12.26h10.33V242.28h5.49v32.34h-5.49v-14.5H611.45v14.5H606Z" transform="translate(-0.11 0.36)"/>
    <path d="M632.32,242.28h5.5v32.34h-5.5Z" transform="translate(-0.11 0.36)"/>
    <path d="M642.85,242.28h5.82l10.7,22.61V242.28h5.14v32.34h-5.58L648,251.38v23.24h-5.14Z" transform="translate(-0.11 0.36)"/>
    <path d="M669.74,274.62V242.28H689.3V248H675.23v6.94h12.95v5.58H675.23V269h14.66v5.67Z" transform="translate(-0.11 0.36)"/>
    <path d="M704.61,274.62V242.28h12a9,9,0,0,1,7.93,4.22q2.81,4.22,2.81,11.2,0,7.35-2.92,12.13a9.13,9.13,0,0,1-8.26,4.79Zm5.5-5.67h5.4a5.12,5.12,0,0,0,4.57-2.79,15.46,15.46,0,0,0,1.67-7.86q0-10.35-6.2-10.35h-5.44Z" transform="translate(-0.11 0.36)"/>
    <path d="M731.24,274.62V242.28H750.8V248H736.74v6.94h12.94v5.58H736.74V269h14.65v5.67Z" transform="translate(-0.11 0.36)"/>
    <path d="M766.14,266.71a33.15,33.15,0,0,1,6.06-6.46A18,18,0,0,0,776,256a7.19,7.19,0,0,0,.88-3.47,5.66,5.66,0,0,0-.92-3.14,3,3,0,0,0-2.71-1.43q-3.76,0-3.77,5.94h-5q0-5.37,2.2-8.31a7.45,7.45,0,0,1,6.32-2.94,8.73,8.73,0,0,1,6.51,2.59c1.71,1.73,2.57,4.25,2.57,7.58A12.32,12.32,0,0,1,781,258a16,16,0,0,1-4.64,5.34,26,26,0,0,0-5.56,5.61H782.2v5.64h-18A14,14,0,0,1,766.14,266.71Z" transform="translate(-0.11 0.36)"/>
    <path d="M784.94,259q0-16.37,9.19-16.36a7.28,7.28,0,0,1,6.85,4q2.21,4,2.2,12.23,0,8.73-2.26,12.62a7.35,7.35,0,0,1-6.79,3.89Q785,275.44,784.94,259Zm5.23,0c0,4.6.32,7.64,1,9.14a3.15,3.15,0,0,0,3,2.22c1.49,0,2.5-.93,3-2.77A34,34,0,0,0,798,259c0-4.27-.28-7.23-.86-8.87s-1.56-2.49-3-2.49-2.53.86-3.1,2.58S790.17,254.89,790.17,259.07Z" transform="translate(-0.11 0.36)"/>
    <path d="M806.78,248.23c2.63,0,4.5-.46,5.63-1.38a4.9,4.9,0,0,0,1.69-4h4.24v31.77h-5.23V252.69h-6.33Z" transform="translate(-0.11 0.36)"/>
    <path d="M825.83,262.19l9.61-19.34h5.86v19.84h2.86v4.92H841.3v7h-5.23v-7H825.83Zm3.83.5h6.41V249.33Z" transform="translate(-0.11 0.36)"/>
    <path d="M858.46,274.62V242.28H878V248H864v6.94H876.9v5.58H864V269h14.65v5.67Z" transform="translate(-0.11 0.36)"/>
    <path d="M880.59,242.28h21.67V248h-8.09v26.67h-5.49V248h-8.09Z" transform="translate(-0.11 0.36)"/>
    <path d="M915.9,266.71a33.24,33.24,0,0,1,6.07-6.46,18.19,18.19,0,0,0,3.8-4.22,7.3,7.3,0,0,0,.88-3.47,5.59,5.59,0,0,0-.93-3.14A3,3,0,0,0,923,248q-3.78,0-3.78,5.94h-5q0-5.37,2.19-8.31a7.46,7.46,0,0,1,6.33-2.94,8.69,8.69,0,0,1,6.5,2.59c1.72,1.73,2.57,4.25,2.57,7.58a12.32,12.32,0,0,1-1.12,5.18,16,16,0,0,1-4.63,5.34,26,26,0,0,0-5.56,5.61H932v5.64H914A14.09,14.09,0,0,1,915.9,266.71Z" transform="translate(-0.11 0.36)"/>
    <path d="M934.71,259q0-16.37,9.18-16.36a7.3,7.3,0,0,1,6.86,4q2.19,4,2.2,12.23,0,8.73-2.27,12.62a7.33,7.33,0,0,1-6.79,3.89Q934.71,275.44,934.71,259Zm5.23,0c0,4.6.31,7.64.94,9.14a3.16,3.16,0,0,0,3,2.22c1.5,0,2.51-.93,3-2.77a34.51,34.51,0,0,0,.79-8.62q0-6.41-.86-8.87t-3-2.49q-2.24,0-3.09,2.58C940.22,252,939.94,254.89,939.94,259.07Z" transform="translate(-0.11 0.36)"/>
    <path d="M956.55,248.23q3.93,0,5.63-1.38a4.93,4.93,0,0,0,1.69-4h4.24v31.77h-5.23V252.69h-6.33Z" transform="translate(-0.11 0.36)"/>
    <path d="M981,256.36a5.8,5.8,0,0,1,5.08-2.54,7,7,0,0,1,5.76,2.76,11.45,11.45,0,0,1,2.17,7.28q0,5.29-2.35,8.43a7.39,7.39,0,0,1-6.26,3.15q-9.63,0-9.63-16.13,0-8.7,2.47-12.66a8.33,8.33,0,0,1,7.6-4,7.05,7.05,0,0,1,5.27,2.08,9.61,9.61,0,0,1,2.42,6h-5.14a3,3,0,0,0-.77-2.26,3.11,3.11,0,0,0-2.27-.73Q981,247.77,981,256.36Zm.09,8.05a8.19,8.19,0,0,0,1,4.24,3.4,3.4,0,0,0,3,1.69,3,3,0,0,0,2.68-1.65,8.87,8.87,0,0,0,.94-4.42,7.19,7.19,0,0,0-.94-3.82,3.06,3.06,0,0,0-2.79-1.54,3.34,3.34,0,0,0-2.95,1.5A7,7,0,0,0,981.07,264.41Z" transform="translate(-0.11 0.36)"/>
  </g>
  <g id="_Groupe_2" data-name="&lt;Groupe&gt;">
    <path d="M230.14,302.05h1.66v10.79c0,2.06.95,3.09,2.84,3.09s2.85-1,2.85-3v-10.9h1.66v11.42a3.63,3.63,0,0,1-1.22,3,5.87,5.87,0,0,1-6.64,0,3.83,3.83,0,0,1-1.15-3Z" transform="translate(-0.11 0.36)"/>
    <path d="M242.08,317.05V306h1.54v1.27a3.26,3.26,0,0,1,2.82-1.56,2.67,2.67,0,0,1,2,.71,3,3,0,0,1,.7,2.18v8.5h-1.58V309c0-1.33-.54-2-1.62-2a2.15,2.15,0,0,0-1.63.67,2.42,2.42,0,0,0-.64,1.72v7.66Z" transform="translate(-0.11 0.36)"/>
    <path d="M251.94,302.07h1.58v2h-1.58Zm0,3.88h1.58v11.1h-1.58Z" transform="translate(-0.11 0.36)"/>
    <path d="M259.31,315.79,261.8,306h1.63l-3.28,11.1h-1.73L255.14,306h1.63Z" transform="translate(-0.11 0.36)"/>
    <path d="M266.08,311.61v.83a5,5,0,0,0,.55,2.82,1.78,1.78,0,0,0,1.49.74,1.73,1.73,0,0,0,1.38-.57,2.51,2.51,0,0,0,.51-1.56c0-.19,0-.37,0-.53h1.44v.38a3.86,3.86,0,0,1-.88,2.58,3.11,3.11,0,0,1-2.52,1c-2.42,0-3.62-1.95-3.62-5.84a8.46,8.46,0,0,1,.92-4.27,2.94,2.94,0,0,1,2.68-1.57,3,3,0,0,1,2.69,1.22c.54.82.81,2.39.81,4.73Zm3.84-1.3a4.73,4.73,0,0,0-.51-2.66,1.56,1.56,0,0,0-1.29-.65,1.65,1.65,0,0,0-1.55.77,5.46,5.46,0,0,0-.49,2.54Z" transform="translate(-0.11 0.36)"/>
    <path d="M274,317.05V306h1.53v1.74a3,3,0,0,1,2.91-2l.42,0v1.57a2.66,2.66,0,0,0-.67-.06,2.41,2.41,0,0,0-1.93.82,3.34,3.34,0,0,0-.68,2.18v6.86Z" transform="translate(-0.11 0.36)"/>
    <path d="M281.28,313.75a3.11,3.11,0,0,0,.37,1.67,1.67,1.67,0,0,0,1.51.58c1.42,0,2.13-.62,2.13-1.85a1.42,1.42,0,0,0-.48-1.15,5.11,5.11,0,0,0-1.68-.85,6.38,6.38,0,0,1-2.7-1.47,2.76,2.76,0,0,1-.61-1.84,3,3,0,0,1,.94-2.37,3.47,3.47,0,0,1,2.36-.81q3.4,0,3.41,3.28H285a2.39,2.39,0,0,0-.36-1.44,1.65,1.65,0,0,0-1.42-.5c-1.2,0-1.8.57-1.8,1.7a1.52,1.52,0,0,0,.41,1.07,6.21,6.21,0,0,0,2,1.06,6.66,6.66,0,0,1,2.46,1.38,2.52,2.52,0,0,1,.58,1.72,3.09,3.09,0,0,1-1.06,2.54,4,4,0,0,1-2.65.87,3.66,3.66,0,0,1-2.52-.83,2.85,2.85,0,0,1-.92-2.21v-.55Z" transform="translate(-0.11 0.36)"/>
    <path d="M289.08,302.07h1.58v2h-1.58Zm0,3.88h1.58v11.1h-1.58Z" transform="translate(-0.11 0.36)"/>
    <path d="M292.16,307.29V306h1.53v-3h1.59v3h1.87v1.34h-1.87v7.56a1.29,1.29,0,0,0,.12.68q.14.18.69.18h1v1.34h-1.76a1.68,1.68,0,0,1-1.3-.39,2.19,2.19,0,0,1-.35-1.4v-8Z" transform="translate(-0.11 0.36)"/>
    <path d="M299.89,311.61v.83a5,5,0,0,0,.56,2.82,1.76,1.76,0,0,0,1.48.74,1.72,1.72,0,0,0,1.38-.57,2.46,2.46,0,0,0,.52-1.56,4.44,4.44,0,0,1,0-.53h1.43v.38a3.86,3.86,0,0,1-.88,2.58,3.11,3.11,0,0,1-2.52,1q-3.61,0-3.62-5.84a8.35,8.35,0,0,1,.93-4.27,2.93,2.93,0,0,1,2.67-1.57,3,3,0,0,1,2.69,1.22c.54.82.81,2.39.81,4.73Zm3.84-1.3a4.73,4.73,0,0,0-.51-2.66,1.56,1.56,0,0,0-1.29-.65,1.66,1.66,0,0,0-1.55.77,5.59,5.59,0,0,0-.49,2.54ZM301,304.57l1.73-2.82h2.17l-2.58,2.82Z" transform="translate(-0.11 0.36)"/>
    <path d="M311.35,302.05h9.47v1.5h-3.9v13.5h-1.66v-13.5h-3.91Z" transform="translate(-0.11 0.36)"/>
    <path d="M321.93,311.09a6.88,6.88,0,0,1,1-4,3.44,3.44,0,0,1,3-1.4,3.31,3.31,0,0,1,2.9,1.42,6.72,6.72,0,0,1,1,4,9.77,9.77,0,0,1-.91,4.73,3.15,3.15,0,0,1-3,1.57,3.39,3.39,0,0,1-3.07-1.44A9.31,9.31,0,0,1,321.93,311.09Zm1.64.52a7.73,7.73,0,0,0,.54,3.34,1.86,1.86,0,0,0,1.77,1.05,1.82,1.82,0,0,0,1.79-1.1,8.18,8.18,0,0,0,.51-3.29,8.49,8.49,0,0,0-.53-3.54,2,2,0,0,0-3.53,0A8.26,8.26,0,0,0,323.57,311.61Z" transform="translate(-0.11 0.36)"/>
    <path d="M332.33,306h1.58v8.64a1.59,1.59,0,0,0,.32,1.05,1.45,1.45,0,0,0,1.14.36,2.17,2.17,0,0,0,1.58-.68,3.24,3.24,0,0,0,.69-2.34v-7h1.59v11.1h-1.59v-1.58a2.78,2.78,0,0,1-2.78,1.87c-1.68,0-2.53-1-2.53-2.89Z" transform="translate(-0.11 0.36)"/>
    <path d="M342.11,317.05v-15h1.59v15Z" transform="translate(-0.11 0.36)"/>
    <path d="M346,311.09a6.89,6.89,0,0,1,1-4,3.45,3.45,0,0,1,3-1.4,3.31,3.31,0,0,1,2.9,1.42,6.72,6.72,0,0,1,1,4,9.66,9.66,0,0,1-.91,4.73,3.15,3.15,0,0,1-3,1.57A3.37,3.37,0,0,1,347,315.9,9.21,9.21,0,0,1,346,311.09Zm1.63.52a7.55,7.55,0,0,0,.55,3.34A1.86,1.86,0,0,0,350,316a1.81,1.81,0,0,0,1.79-1.1,8,8,0,0,0,.52-3.29,8.46,8.46,0,0,0-.54-3.54,2,2,0,0,0-3.52,0A8.08,8.08,0,0,0,347.65,311.61Z" transform="translate(-0.11 0.36)"/>
    <path d="M356.42,306H358v8.64a1.58,1.58,0,0,0,.31,1.05,1.47,1.47,0,0,0,1.14.36,2.17,2.17,0,0,0,1.58-.68,3.19,3.19,0,0,0,.7-2.34v-7h1.58v11.1h-1.58v-1.58a2.8,2.8,0,0,1-2.79,1.87c-1.68,0-2.52-1-2.52-2.89Z" transform="translate(-0.11 0.36)"/>
    <path d="M367.15,313.75a3.1,3.1,0,0,0,.38,1.67A1.66,1.66,0,0,0,369,316c1.42,0,2.13-.62,2.13-1.85a1.42,1.42,0,0,0-.48-1.15,5.11,5.11,0,0,0-1.68-.85,6.51,6.51,0,0,1-2.71-1.47,2.81,2.81,0,0,1-.6-1.84,3,3,0,0,1,.94-2.37,3.47,3.47,0,0,1,2.36-.81q3.4,0,3.41,3.28H370.9a2.39,2.39,0,0,0-.36-1.44,1.63,1.63,0,0,0-1.41-.5c-1.2,0-1.8.57-1.8,1.7a1.52,1.52,0,0,0,.41,1.07,6.1,6.1,0,0,0,2,1.06,6.51,6.51,0,0,1,2.45,1.38,2.53,2.53,0,0,1,.59,1.72,3.1,3.1,0,0,1-1.07,2.54,4,4,0,0,1-2.64.87,3.66,3.66,0,0,1-2.52-.83,2.85,2.85,0,0,1-.92-2.21v-.55Z" transform="translate(-0.11 0.36)"/>
    <path d="M376,311.61v.83a4.92,4.92,0,0,0,.56,2.82,1.75,1.75,0,0,0,1.48.74,1.73,1.73,0,0,0,1.38-.57,2.45,2.45,0,0,0,.51-1.56c0-.19,0-.37,0-.53h1.44v.38a3.86,3.86,0,0,1-.88,2.58,3.11,3.11,0,0,1-2.52,1q-3.62,0-3.62-5.84a8.35,8.35,0,0,1,.93-4.27,2.92,2.92,0,0,1,2.67-1.57,3,3,0,0,1,2.69,1.22c.54.82.81,2.39.81,4.73Zm3.84-1.3a4.73,4.73,0,0,0-.51-2.66,1.56,1.56,0,0,0-1.29-.65,1.65,1.65,0,0,0-1.55.77,5.46,5.46,0,0,0-.49,2.54Z" transform="translate(-0.11 0.36)"/>
    <path d="M389.13,302.05h1.66v15h-1.66Z" transform="translate(-0.11 0.36)"/>
    <path d="M394.57,302.05h1.66v15h-1.66Z" transform="translate(-0.11 0.36)"/>
    <path d="M400,302.05h1.66v15H400Z" transform="translate(-0.11 0.36)"/>
    <path d="M410.05,302.05h4a4.92,4.92,0,0,1,3.61,1.11,4.18,4.18,0,0,1,1.11,3.09,4.48,4.48,0,0,1-1.15,3.33q-1.14,1.14-4,1.14h-1.86v6.33h-1.67Zm1.67,1.5v5.67h1.66a4.36,4.36,0,0,0,2.93-.7,2.88,2.88,0,0,0,.73-2.19,2.69,2.69,0,0,0-.74-2.1,4.25,4.25,0,0,0-2.82-.68Z" transform="translate(-0.11 0.36)"/>
    <path d="M420.4,308.94v-.39q0-2.9,3.3-2.89a3.2,3.2,0,0,1,2.27.72,2.5,2.5,0,0,1,.78,1.92v6.88c0,.48.22.72.65.72l.32,0V317a1.87,1.87,0,0,1-.72.12,1.63,1.63,0,0,1-1.22-.38,2.1,2.1,0,0,1-.37-1.3,3.12,3.12,0,0,1-1.07,1.36,2.51,2.51,0,0,1-1.5.52q-2.88,0-2.88-3.19a2.76,2.76,0,0,1,1.77-2.8l2.87-1.16a1.16,1.16,0,0,0,.54-.37,1.65,1.65,0,0,0,.16-.87c0-.84-.16-1.38-.46-1.61a2.2,2.2,0,0,0-1.33-.34,1.79,1.79,0,0,0-1.29.37,1.61,1.61,0,0,0-.38,1.18v.39Zm4.77,2.09a15.91,15.91,0,0,1-2.49,1.16,1.94,1.94,0,0,0-1.09,2q0,1.8,1.59,1.8a1.79,1.79,0,0,0,1.42-.64,2.32,2.32,0,0,0,.57-1.57Z" transform="translate(-0.11 0.36)"/>
    <path d="M429.64,306h1.58v8.64a1.58,1.58,0,0,0,.31,1.05,1.48,1.48,0,0,0,1.15.36,2.19,2.19,0,0,0,1.58-.68A3.24,3.24,0,0,0,435,313v-7h1.58v11.1H435v-1.58a2.79,2.79,0,0,1-2.78,1.87c-1.69,0-2.53-1-2.53-2.89Z" transform="translate(-0.11 0.36)"/>
    <path d="M439.42,317.05v-15H441v15Z" transform="translate(-0.11 0.36)"/>
    <path d="M450,312.28V313a3,3,0,0,0,.69,2.24,2.89,2.89,0,0,0,2.11.67,2.86,2.86,0,0,0,2.13-.72,2.67,2.67,0,0,0,.72-1.95,3.08,3.08,0,0,0-.35-1.66,2.29,2.29,0,0,0-1.15-.85l-3.09-1.2a4,4,0,0,1-2.11-1.55,4.55,4.55,0,0,1-.5-2.22,4,4,0,0,1,1.15-3,4.05,4.05,0,0,1,3-1.16,4.49,4.49,0,0,1,3.17,1,3.24,3.24,0,0,1,1.12,2.5c0,.23,0,.46,0,.7h-1.71a4.39,4.39,0,0,0,0-.54,2.28,2.28,0,0,0-2.34-2.18,2.74,2.74,0,0,0-2.05.67,2.78,2.78,0,0,0-.63,2,2.09,2.09,0,0,0,1.48,2.09l2.73,1a5.33,5.33,0,0,1,2.36,1.53,3.91,3.91,0,0,1,.63,2.36,4.7,4.7,0,0,1-1.18,3.32,4.49,4.49,0,0,1-3.46,1.26,4.58,4.58,0,0,1-3.24-1.11,4.48,4.48,0,0,1-1.19-3.44v-.61Z" transform="translate(-0.11 0.36)"/>
    <path d="M459.25,308.94v-.39q0-2.9,3.3-2.89a3.19,3.19,0,0,1,2.26.72,2.5,2.5,0,0,1,.78,1.92v6.88c0,.48.22.72.65.72l.32,0V317a1.87,1.87,0,0,1-.72.12,1.61,1.61,0,0,1-1.21-.38,2,2,0,0,1-.37-1.3,3.22,3.22,0,0,1-1.08,1.36,2.46,2.46,0,0,1-1.5.52c-1.92,0-2.87-1.06-2.87-3.19a2.76,2.76,0,0,1,1.76-2.8l2.88-1.16a1.18,1.18,0,0,0,.53-.37,1.55,1.55,0,0,0,.16-.87c0-.84-.15-1.38-.46-1.61a2.2,2.2,0,0,0-1.33-.34,1.83,1.83,0,0,0-1.29.37,1.61,1.61,0,0,0-.38,1.18v.39ZM464,311a15.91,15.91,0,0,1-2.49,1.16,1.93,1.93,0,0,0-1.08,2c0,1.2.53,1.8,1.58,1.8a1.83,1.83,0,0,0,1.43-.64,2.36,2.36,0,0,0,.56-1.57Z" transform="translate(-0.11 0.36)"/>
    <path d="M468.45,317.05v-15H470v5.17a2.57,2.57,0,0,1,1-1.12,2.62,2.62,0,0,1,1.47-.44,2.89,2.89,0,0,1,2.64,1.43,6.93,6.93,0,0,1,.88,3.73,11.51,11.51,0,0,1-.8,4.87,2.75,2.75,0,0,1-2.69,1.65,2.67,2.67,0,0,1-2.59-1.72v1.43Zm1.58-5.3v.68a4.86,4.86,0,0,0,.59,2.85,2,2,0,0,0,1.58.72,1.67,1.67,0,0,0,1.7-1.2,10.63,10.63,0,0,0,.44-3.51q0-4.29-2.17-4.29a1.73,1.73,0,0,0-1.65.94,7.28,7.28,0,0,0-.49,3.12Z" transform="translate(-0.11 0.36)"/>
    <path d="M477.88,308.94v-.39q0-2.9,3.3-2.89a3.2,3.2,0,0,1,2.27.72,2.5,2.5,0,0,1,.78,1.92v6.88c0,.48.22.72.65.72l.32,0V317a1.87,1.87,0,0,1-.72.12,1.63,1.63,0,0,1-1.22-.38,2.1,2.1,0,0,1-.37-1.3,3.12,3.12,0,0,1-1.07,1.36,2.51,2.51,0,0,1-1.5.52q-2.88,0-2.88-3.19a2.76,2.76,0,0,1,1.77-2.8l2.87-1.16a1.16,1.16,0,0,0,.54-.37,1.65,1.65,0,0,0,.16-.87c0-.84-.16-1.38-.46-1.61A2.2,2.2,0,0,0,481,307a1.79,1.79,0,0,0-1.29.37,1.61,1.61,0,0,0-.38,1.18v.39Zm4.77,2.09a15.91,15.91,0,0,1-2.49,1.16,1.93,1.93,0,0,0-1.08,2c0,1.2.52,1.8,1.58,1.8a1.79,1.79,0,0,0,1.42-.64,2.32,2.32,0,0,0,.57-1.57Z" transform="translate(-0.11 0.36)"/>
    <path d="M485.78,307.29V306h1.53v-3h1.59v3h1.87v1.34H488.9v7.56a1.29,1.29,0,0,0,.12.68q.14.18.69.18h1v1.34H489a1.69,1.69,0,0,1-1.31-.39,2.19,2.19,0,0,1-.35-1.4v-8Z" transform="translate(-0.11 0.36)"/>
    <path d="M492.46,302.07H494v2h-1.58Zm0,3.88H494v11.1h-1.58Z" transform="translate(-0.11 0.36)"/>
    <path d="M497.84,311.61v.83a5,5,0,0,0,.55,2.82,1.78,1.78,0,0,0,1.49.74,1.7,1.7,0,0,0,1.37-.57,2.46,2.46,0,0,0,.52-1.56c0-.19,0-.37,0-.53h1.44v.38a3.92,3.92,0,0,1-.88,2.58,3.11,3.11,0,0,1-2.52,1c-2.42,0-3.62-1.95-3.62-5.84a8.36,8.36,0,0,1,.92-4.27,3.29,3.29,0,0,1,5.36-.35c.54.82.81,2.39.81,4.73Zm3.83-1.3a4.84,4.84,0,0,0-.5-2.66,1.58,1.58,0,0,0-1.29-.65,1.66,1.66,0,0,0-1.56.77,5.61,5.61,0,0,0-.48,2.54Z" transform="translate(-0.11 0.36)"/>
    <path d="M505.73,317.05V306h1.54v1.74a3,3,0,0,1,2.91-2l.42,0v1.57a2.66,2.66,0,0,0-.67-.06A2.41,2.41,0,0,0,508,308a3.29,3.29,0,0,0-.68,2.18v6.86Z" transform="translate(-0.11 0.36)"/>
    <path d="M516.46,309.9h4.84v1.66h-4.84Z" transform="translate(-0.11 0.36)"/>
    <path d="M528.13,309a10,10,0,0,1,1.23-5.47,4.7,4.7,0,0,1,7.38-.14c.82,1.14,1.23,3.12,1.23,5.92q0,4.68-1.25,6.41a4.21,4.21,0,0,1-3.63,1.73,4.13,4.13,0,0,1-3.83-1.85Q528.14,313.75,528.13,309Zm1.71.11a14.2,14.2,0,0,0,.69,5.37,2.53,2.53,0,0,0,2.55,1.46,2.5,2.5,0,0,0,2.51-1.5,14.73,14.73,0,0,0,.67-5.38q0-5.9-3.26-5.89C530.9,303.16,529.84,305.14,529.84,309.1Z" transform="translate(-0.11 0.36)"/>
    <path d="M540.54,317.05v-15h1.59v5.17a2.49,2.49,0,0,1,.94-1.12,2.62,2.62,0,0,1,1.47-.44,2.89,2.89,0,0,1,2.64,1.43,6.93,6.93,0,0,1,.88,3.73,11.51,11.51,0,0,1-.8,4.87,2.75,2.75,0,0,1-2.69,1.65,2.68,2.68,0,0,1-2.59-1.72v1.43Zm1.59-5.3v.68a4.88,4.88,0,0,0,.58,2.85,2,2,0,0,0,1.58.72,1.67,1.67,0,0,0,1.7-1.2,10.63,10.63,0,0,0,.44-3.51q0-4.29-2.17-4.29a1.73,1.73,0,0,0-1.65.94,7.31,7.31,0,0,0-.48,3.12Z" transform="translate(-0.11 0.36)"/>
    <path d="M551.31,313.75a3.2,3.2,0,0,0,.37,1.67,1.69,1.69,0,0,0,1.52.58c1.42,0,2.13-.62,2.13-1.85a1.42,1.42,0,0,0-.48-1.15,5.11,5.11,0,0,0-1.68-.85,6.51,6.51,0,0,1-2.71-1.47,2.81,2.81,0,0,1-.6-1.84,3,3,0,0,1,.94-2.37,3.47,3.47,0,0,1,2.36-.81q3.4,0,3.41,3.28h-1.51a2.39,2.39,0,0,0-.36-1.44,1.63,1.63,0,0,0-1.41-.5c-1.2,0-1.8.57-1.8,1.7a1.52,1.52,0,0,0,.41,1.07,6.1,6.1,0,0,0,2,1.06,6.51,6.51,0,0,1,2.45,1.38,2.53,2.53,0,0,1,.59,1.72,3.1,3.1,0,0,1-1.07,2.54,4,4,0,0,1-2.64.87,3.66,3.66,0,0,1-2.52-.83,2.82,2.82,0,0,1-.92-2.21v-.55Z" transform="translate(-0.11 0.36)"/>
    <path d="M560.17,311.61v.83a5,5,0,0,0,.55,2.82,1.78,1.78,0,0,0,1.49.74,1.7,1.7,0,0,0,1.37-.57,2.46,2.46,0,0,0,.52-1.56c0-.19,0-.37,0-.53h1.44v.38a3.92,3.92,0,0,1-.88,2.58,3.11,3.11,0,0,1-2.52,1c-2.42,0-3.62-1.95-3.62-5.84a8.46,8.46,0,0,1,.92-4.27,3.29,3.29,0,0,1,5.36-.35c.55.82.82,2.39.82,4.73Zm3.83-1.3a4.75,4.75,0,0,0-.5-2.66,1.57,1.57,0,0,0-1.29-.65,1.64,1.64,0,0,0-1.55.77,5.46,5.46,0,0,0-.49,2.54Z" transform="translate(-0.11 0.36)"/>
    <path d="M568.07,317.05V306h1.53v1.74a3,3,0,0,1,2.91-2l.42,0v1.57a2.66,2.66,0,0,0-.67-.06,2.41,2.41,0,0,0-1.93.82,3.29,3.29,0,0,0-.68,2.18v6.86Z" transform="translate(-0.11 0.36)"/>
    <path d="M577.46,315.79,580,306h1.63l-3.28,11.1h-1.73L573.29,306h1.63Z" transform="translate(-0.11 0.36)"/>
    <path d="M582.79,308.94v-.39q0-2.9,3.3-2.89a3.19,3.19,0,0,1,2.26.72,2.5,2.5,0,0,1,.78,1.92v6.88c0,.48.22.72.65.72l.32,0V317a1.87,1.87,0,0,1-.72.12,1.59,1.59,0,0,1-1.21-.38,2,2,0,0,1-.37-1.3,3.22,3.22,0,0,1-1.08,1.36,2.48,2.48,0,0,1-1.5.52c-1.92,0-2.87-1.06-2.87-3.19a2.76,2.76,0,0,1,1.76-2.8l2.88-1.16a1.18,1.18,0,0,0,.53-.37,1.55,1.55,0,0,0,.16-.87c0-.84-.15-1.38-.46-1.61a2.2,2.2,0,0,0-1.33-.34,1.83,1.83,0,0,0-1.29.37,1.61,1.61,0,0,0-.38,1.18v.39Zm4.76,2.09a15.91,15.91,0,0,1-2.49,1.16,1.93,1.93,0,0,0-1.08,2c0,1.2.52,1.8,1.58,1.8a1.83,1.83,0,0,0,1.43-.64,2.36,2.36,0,0,0,.56-1.57Z" transform="translate(-0.11 0.36)"/>
    <path d="M590.68,307.29V306h1.54v-3h1.58v3h1.87v1.34H593.8v7.56a1.18,1.18,0,0,0,.13.68c.09.12.31.18.68.18h1v1.34h-1.75a1.71,1.71,0,0,1-1.31-.39,2.19,2.19,0,0,1-.34-1.4v-8Z" transform="translate(-0.11 0.36)"/>
    <path d="M596.94,311.09a6.81,6.81,0,0,1,1-4,3.43,3.43,0,0,1,3-1.4,3.34,3.34,0,0,1,2.91,1.42,6.72,6.72,0,0,1,1,4,9.66,9.66,0,0,1-.91,4.73,3.15,3.15,0,0,1-3,1.57,3.38,3.38,0,0,1-3.06-1.44A9.21,9.21,0,0,1,596.94,311.09Zm1.63.52a7.55,7.55,0,0,0,.55,3.34,1.86,1.86,0,0,0,1.77,1.05,1.8,1.8,0,0,0,1.78-1.1,8,8,0,0,0,.52-3.29,8.46,8.46,0,0,0-.54-3.54,1.84,1.84,0,0,0-1.77-1.07,1.86,1.86,0,0,0-1.75,1.05A8.23,8.23,0,0,0,598.57,311.61Z" transform="translate(-0.11 0.36)"/>
    <path d="M607.24,302.07h1.58v2h-1.58Zm0,3.88h1.58v11.1h-1.58Z" transform="translate(-0.11 0.36)"/>
    <path d="M611.76,317.05V306h1.53v1.74a3,3,0,0,1,2.91-2l.42,0v1.57a2.57,2.57,0,0,0-.66-.06A2.43,2.43,0,0,0,614,308a3.34,3.34,0,0,0-.68,2.18v6.86Z" transform="translate(-0.11 0.36)"/>
    <path d="M619.16,311.61v.83a5,5,0,0,0,.55,2.82,1.78,1.78,0,0,0,1.49.74,1.73,1.73,0,0,0,1.38-.57,2.51,2.51,0,0,0,.51-1.56c0-.19,0-.37,0-.53h1.44v.38a3.86,3.86,0,0,1-.88,2.58,3.11,3.11,0,0,1-2.52,1q-3.61,0-3.62-5.84a8.46,8.46,0,0,1,.92-4.27,3,3,0,0,1,2.68-1.57,3,3,0,0,1,2.69,1.22c.54.82.81,2.39.81,4.73Zm3.84-1.3a4.73,4.73,0,0,0-.51-2.66,1.56,1.56,0,0,0-1.29-.65,1.65,1.65,0,0,0-1.55.77,5.46,5.46,0,0,0-.49,2.54Z" transform="translate(-0.11 0.36)"/>
    <path d="M637.18,307.22v-5.17h1.58v15h-1.53v-1.58a4,4,0,0,1-1,1.39,2.64,2.64,0,0,1-1.71.48,2.74,2.74,0,0,1-2.4-1.28c-.56-.86-.85-2.56-.85-5.11a7.56,7.56,0,0,1,.86-3.79,2.69,2.69,0,0,1,2.46-1.5A3,3,0,0,1,637.18,307.22Zm-4.31,4.32a8.48,8.48,0,0,0,.5,3.53A1.74,1.74,0,0,0,635,316a1.77,1.77,0,0,0,1.59-.92,4.5,4.5,0,0,0,.58-2.44v-1.42a7.35,7.35,0,0,0-.52-3.22,1.72,1.72,0,0,0-1.65-1C633.59,307,632.87,308.51,632.87,311.54Z" transform="translate(-0.11 0.36)"/>
    <path d="M642.68,311.61v.83a5,5,0,0,0,.55,2.82,1.77,1.77,0,0,0,1.49.74,1.7,1.7,0,0,0,1.37-.57,2.46,2.46,0,0,0,.52-1.56c0-.19,0-.37,0-.53h1.44v.38a3.92,3.92,0,0,1-.88,2.58,3.11,3.11,0,0,1-2.52,1q-3.63,0-3.63-5.84a8.35,8.35,0,0,1,.93-4.27,2.94,2.94,0,0,1,2.68-1.57,3,3,0,0,1,2.68,1.22c.54.82.81,2.39.81,4.73Zm3.83-1.3a4.84,4.84,0,0,0-.5-2.66,1.58,1.58,0,0,0-1.29-.65,1.66,1.66,0,0,0-1.56.77,5.48,5.48,0,0,0-.48,2.54Z" transform="translate(-0.11 0.36)"/>
    <path d="M655.26,317.05v-15h1.58v15Z" transform="translate(-0.11 0.36)"/>
    <path d="M659.2,308.94v-.39q0-2.9,3.3-2.89a3.22,3.22,0,0,1,2.27.72,2.5,2.5,0,0,1,.78,1.92v6.88c0,.48.21.72.64.72l.32,0V317a1.83,1.83,0,0,1-.72.12,1.62,1.62,0,0,1-1.21-.38,2,2,0,0,1-.37-1.3,3.12,3.12,0,0,1-1.07,1.36,2.51,2.51,0,0,1-1.51.52q-2.86,0-2.87-3.19a2.76,2.76,0,0,1,1.77-2.8l2.87-1.16a1.28,1.28,0,0,0,.54-.37,1.67,1.67,0,0,0,.15-.87c0-.84-.15-1.38-.46-1.61a2.14,2.14,0,0,0-1.32-.34,1.79,1.79,0,0,0-1.29.37,1.57,1.57,0,0,0-.38,1.18v.39ZM664,311a16.85,16.85,0,0,1-2.49,1.16,1.92,1.92,0,0,0-1.09,2c0,1.2.53,1.8,1.58,1.8a1.81,1.81,0,0,0,1.43-.64,2.32,2.32,0,0,0,.57-1.57Z" transform="translate(-0.11 0.36)"/>
    <path d="M676.26,315.79l2.49-9.84h1.64l-3.29,11.1h-1.72L672.09,306h1.64Z" transform="translate(-0.11 0.36)"/>
    <path d="M682,302.07h1.59v2H682Zm0,3.88h1.59v11.1H682Z" transform="translate(-0.11 0.36)"/>
    <path d="M687.35,311.61v.83a5,5,0,0,0,.56,2.82,1.76,1.76,0,0,0,1.48.74,1.7,1.7,0,0,0,1.38-.57,2.46,2.46,0,0,0,.52-1.56,4.44,4.44,0,0,1,0-.53h1.43v.38a3.86,3.86,0,0,1-.88,2.58,3.1,3.1,0,0,1-2.52,1q-3.62,0-3.62-5.84a8.35,8.35,0,0,1,.93-4.27,2.93,2.93,0,0,1,2.67-1.57,3,3,0,0,1,2.69,1.22c.54.82.81,2.39.81,4.73Zm3.84-1.3a4.73,4.73,0,0,0-.51-2.66,1.56,1.56,0,0,0-1.29-.65,1.66,1.66,0,0,0-1.55.77,5.59,5.59,0,0,0-.49,2.54Z" transform="translate(-0.11 0.36)"/>
    <path d="M701,311.61v.83a5,5,0,0,0,.56,2.82A1.75,1.75,0,0,0,703,316a1.73,1.73,0,0,0,1.38-.57,2.51,2.51,0,0,0,.52-1.56,4.44,4.44,0,0,1,0-.53h1.43v.38a3.86,3.86,0,0,1-.88,2.58,3.11,3.11,0,0,1-2.52,1q-3.62,0-3.62-5.84a8.35,8.35,0,0,1,.93-4.27,2.93,2.93,0,0,1,2.67-1.57,3,3,0,0,1,2.69,1.22c.54.82.81,2.39.81,4.73Zm3.84-1.3a4.73,4.73,0,0,0-.51-2.66A1.56,1.56,0,0,0,703,307a1.66,1.66,0,0,0-1.55.77,5.59,5.59,0,0,0-.49,2.54Zm-2.74-5.74,1.74-2.82H706l-2.58,2.82Z" transform="translate(-0.11 0.36)"/>
    <path d="M707.45,307.29V306H709v-3h1.58v3h1.87v1.34h-1.87v7.56a1.29,1.29,0,0,0,.12.68q.13.18.69.18h1v1.34h-1.75a1.69,1.69,0,0,1-1.31-.39,2.19,2.19,0,0,1-.34-1.4v-8Z" transform="translate(-0.11 0.36)"/>
    <path d="M714.23,306h1.58v8.64a1.58,1.58,0,0,0,.31,1.05,1.47,1.47,0,0,0,1.14.36,2.21,2.21,0,0,0,1.59-.68,3.24,3.24,0,0,0,.69-2.34v-7h1.58v11.1h-1.58v-1.58a2.79,2.79,0,0,1-2.78,1.87c-1.69,0-2.53-1-2.53-2.89Z" transform="translate(-0.11 0.36)"/>
    <path d="M729.45,307.22v-5.17H731v15H729.5v-1.58a4.09,4.09,0,0,1-1,1.39,2.64,2.64,0,0,1-1.71.48,2.73,2.73,0,0,1-2.4-1.28c-.57-.86-.85-2.56-.85-5.11a7.56,7.56,0,0,1,.86-3.79,2.69,2.69,0,0,1,2.46-1.5A3,3,0,0,1,729.45,307.22Zm-4.31,4.32a8.48,8.48,0,0,0,.5,3.53,1.74,1.74,0,0,0,1.64.93,1.77,1.77,0,0,0,1.59-.92,4.5,4.5,0,0,0,.58-2.44v-1.42a7.35,7.35,0,0,0-.52-3.22,1.73,1.73,0,0,0-1.65-1Q725.14,307,725.14,311.54Z" transform="translate(-0.11 0.36)"/>
    <path d="M733.89,302.07h1.58v2h-1.58Zm0,3.88h1.58v11.1h-1.58Z" transform="translate(-0.11 0.36)"/>
    <path d="M737.83,308.94v-.39q0-2.9,3.3-2.89a3.22,3.22,0,0,1,2.27.72,2.5,2.5,0,0,1,.78,1.92v6.88c0,.48.21.72.64.72l.33,0V317a1.89,1.89,0,0,1-.73.12,1.62,1.62,0,0,1-1.21-.38,2,2,0,0,1-.37-1.3,3.12,3.12,0,0,1-1.07,1.36,2.51,2.51,0,0,1-1.51.52q-2.87,0-2.87-3.19a2.76,2.76,0,0,1,1.77-2.8l2.87-1.16a1.28,1.28,0,0,0,.54-.37,1.67,1.67,0,0,0,.15-.87c0-.84-.15-1.38-.46-1.61a2.14,2.14,0,0,0-1.32-.34,1.79,1.79,0,0,0-1.29.37,1.57,1.57,0,0,0-.38,1.18v.39ZM742.6,311a16.85,16.85,0,0,1-2.49,1.16,1.92,1.92,0,0,0-1.09,2c0,1.2.53,1.8,1.58,1.8a1.81,1.81,0,0,0,1.43-.64,2.32,2.32,0,0,0,.57-1.57Z" transform="translate(-0.11 0.36)"/>
    <path d="M747,317.05V306h1.53v1.27a3.27,3.27,0,0,1,2.82-1.56,2.7,2.7,0,0,1,2,.71,3.05,3.05,0,0,1,.7,2.18v8.5h-1.58V309c0-1.33-.54-2-1.62-2a2.17,2.17,0,0,0-1.64.67,2.42,2.42,0,0,0-.63,1.72v7.66Z" transform="translate(-0.11 0.36)"/>
    <path d="M755.61,307.29V306h1.53v-3h1.58v3h1.88v1.34h-1.88v7.56a1.27,1.27,0,0,0,.13.68c.09.12.32.18.68.18h1v1.34h-1.76a1.72,1.72,0,0,1-1.31-.39,2.26,2.26,0,0,1-.34-1.4v-8Z" transform="translate(-0.11 0.36)"/>
    <path d="M763.34,311.61v.83a5,5,0,0,0,.56,2.82,1.76,1.76,0,0,0,1.48.74,1.73,1.73,0,0,0,1.38-.57,2.51,2.51,0,0,0,.52-1.56,4.44,4.44,0,0,1,0-.53h1.43v.38a3.86,3.86,0,0,1-.88,2.58,3.11,3.11,0,0,1-2.52,1q-3.62,0-3.62-5.84a8.35,8.35,0,0,1,.93-4.27,2.93,2.93,0,0,1,2.67-1.57,3,3,0,0,1,2.69,1.22c.54.82.81,2.39.81,4.73Zm3.84-1.3a4.73,4.73,0,0,0-.51-2.66,1.56,1.56,0,0,0-1.29-.65,1.66,1.66,0,0,0-1.55.77,5.59,5.59,0,0,0-.49,2.54Z" transform="translate(-0.11 0.36)"/>
    <path d="M776.05,304.83a4.09,4.09,0,0,0,2.62-.62,3.39,3.39,0,0,0,.89-2.15h1.28v15h-1.67V306.12h-3.12Z" transform="translate(-0.11 0.36)"/>
    <path d="M785.58,313.76h1.72c0,1.39.66,2.09,2,2.09a2,2,0,0,0,1.93-1.33,12.63,12.63,0,0,0,.72-4.6,2.92,2.92,0,0,1-2.84,1.92,3.43,3.43,0,0,1-2.89-1.3,5.16,5.16,0,0,1-1-3.21,6.34,6.34,0,0,1,1.06-3.79,3.42,3.42,0,0,1,3-1.48,3.67,3.67,0,0,1,3.3,1.59q1.05,1.58,1.05,5.27c0,3.06-.36,5.22-1.06,6.51a3.62,3.62,0,0,1-3.45,1.92,3.3,3.3,0,0,1-2.55-1A3.79,3.79,0,0,1,785.58,313.76Zm1.37-6.6a3.86,3.86,0,0,0,.61,2.39,2.17,2.17,0,0,0,1.83.79c1.58,0,2.37-1.09,2.37-3.25,0-2.35-.82-3.53-2.46-3.53S787,304.76,787,307.16Z" transform="translate(-0.11 0.36)"/>
    <path d="M800.63,318.27V306h1.58v11.58a4,4,0,0,1-.63,2.67,3,3,0,0,1-2.18.64v-1.47c.55,0,.9-.09,1-.27a1.15,1.15,0,0,0,.2-.67Zm0-16.2h1.58v2h-1.58Z" transform="translate(-0.11 0.36)"/>
    <path d="M805,306h1.59v8.64a1.58,1.58,0,0,0,.31,1.05A1.47,1.47,0,0,0,808,316a2.17,2.17,0,0,0,1.58-.68,3.24,3.24,0,0,0,.7-2.34v-7h1.58v11.1H810.3v-1.58a2.8,2.8,0,0,1-2.79,1.87c-1.68,0-2.53-1-2.53-2.89Z" transform="translate(-0.11 0.36)"/>
    <path d="M814.77,302.07h1.58v2h-1.58Zm0,3.88h1.58v11.1h-1.58Z" transform="translate(-0.11 0.36)"/>
    <path d="M819.11,317.05V306h1.53v1.27a3.27,3.27,0,0,1,2.82-1.56,2.7,2.7,0,0,1,2,.71,3.05,3.05,0,0,1,.7,2.18v8.5h-1.58V309c0-1.33-.54-2-1.62-2a2.17,2.17,0,0,0-1.64.67,2.42,2.42,0,0,0-.63,1.72v7.66Z" transform="translate(-0.11 0.36)"/>
    <path d="M833.75,314.16a5.29,5.29,0,0,1,1.41-1.9l3-2.92a4.64,4.64,0,0,0,1-1.34,4,4,0,0,0,.32-1.8c0-1.76-.72-2.64-2.18-2.64s-2.27,1-2.27,3.11v.54h-1.69v-.94a4.4,4.4,0,0,1,1-3.08,4.38,4.38,0,0,1,5.83,0,4.45,4.45,0,0,1,1,3.12,5,5,0,0,1-.57,2.49,9.15,9.15,0,0,1-2,2.22l-2.59,2.32a3.18,3.18,0,0,0-1.14,2.24h6.39v1.51H833.3A10.33,10.33,0,0,1,833.75,314.16Z" transform="translate(-0.11 0.36)"/>
    <path d="M843.21,310.12v-1a10.47,10.47,0,0,1,1-5.35,3.25,3.25,0,0,1,2.92-1.71h.18a3.38,3.38,0,0,1,2.88,1.5q1.1,1.5,1.1,4.95v1.84a10.63,10.63,0,0,1-1,5.35,3.34,3.34,0,0,1-3.05,1.65,3.44,3.44,0,0,1-3.08-1.47,8.72,8.72,0,0,1-1-4.68Zm1.72-1.67v2.49a8.7,8.7,0,0,0,.58,3.94,1.94,1.94,0,0,0,1.76,1,1.84,1.84,0,0,0,1.82-1.31,11.1,11.1,0,0,0,.53-3.93v-2.3a8.06,8.06,0,0,0-.61-3.55,1.93,1.93,0,0,0-1.82-1.2,1.83,1.83,0,0,0-1.66,1.2A8.63,8.63,0,0,0,844.93,308.45Z" transform="translate(-0.11 0.36)"/>
    <path d="M853.74,304.83a4.08,4.08,0,0,0,2.61-.62,3.34,3.34,0,0,0,.89-2.15h1.29v15h-1.67V306.12h-3.12Z" transform="translate(-0.11 0.36)"/>
    <path d="M864.45,317.05a26.92,26.92,0,0,1,2-7.43,25.79,25.79,0,0,1,3.42-5.76H863v-1.5h8.28v1.38a21.44,21.44,0,0,0-3.19,5.83,30.5,30.5,0,0,0-1.78,7.48Z" transform="translate(-0.11 0.36)"/>
  </g>
  <g>
    <path class="cls-2" d="M470.27,454.69c-.25-43.67,35.59-79.49,79.1-80,43.7-.48,81.55,35.21,80.82,81.39a80,80,0,0,1-81.33,78.59C504.53,534,470,497.43,470.27,454.69Zm4.42,0a75.51,75.51,0,1,0,75.82-75.44A75.47,75.47,0,0,0,474.69,454.67Z" transform="translate(-0.11 0.36)"/>
    <path class="cls-2" d="M550.22,526.7a72,72,0,0,1-72-72.36c0-39.28,32.39-71.5,72-71.61s72,32.29,72,72A72,72,0,0,1,550.22,526.7Zm5.58-109.47a3.19,3.19,0,0,0,.2-.68q0-14.06,0-28.09c0-.82-.44-1-1.16-1a65.23,65.23,0,0,0-18.23,1.2c-35.76,7.5-59.38,41.56-52.82,77.48,5.14,28.15,22.4,46,49.8,54.07,2,.59,4.1.89,6.38,1.37V487.77h1.71c7.67,0,15.34,0,23,0A15.31,15.31,0,0,0,580,472.19c-.19-6.59-3.48-11.25-9.45-14-.45-.2-1.07-.62-1.11-1a41.06,41.06,0,0,1,0-4.22c1.67.69,3.13,1.18,4.49,1.88a19.82,19.82,0,0,1-9,37.38H544.5v29.92c23.87,1.22,43.56-7,58.61-25.57a66.64,66.64,0,0,0,6.49-73.68c-10.64-19.43-27.18-30.81-49.17-34.92v33.73c-3.81,0-7.42,0-11,0-5,0-10.08-.16-15.09.18a15.2,15.2,0,0,0-13.83,13.42,15.38,15.38,0,0,0,10.58,16.41c1.37.44,2.81.64,4.24.95v4.26c-.79,0-1.5,0-2.19-.11A20,20,0,0,1,516,434.89c.88-9.76,9.64-17.66,20-17.66H555.8Z" transform="translate(-0.11 0.36)"/>
    <path class="cls-2" d="M548,495.79c.53,0,1-.07,1.54-.07h15.11c11.46,0,21.51-8.56,23.07-19.66a23.51,23.51,0,0,0-16.58-26.18l-1.71-.46v-4.73a71.58,71.58,0,0,1,7.13,2.53,27.44,27.44,0,0,1,15.72,28.41c-1.57,12.6-10.7,22.27-22.84,24.1-4.61.7-9.37.44-14.07.55-3,.06-3,0-3,3,0,3.2,0,6.4,0,9.6,0,.92.19,1.4,1.26,1.3,22-1.89,38.53-12.38,49-31.71a58.81,58.81,0,0,0-8.58-67.67,59.61,59.61,0,0,0-23.91-16c-.4-.15-.81-.27-1.21-.38a2.28,2.28,0,0,0-.57.05v31.28h-32.3a7.43,7.43,0,0,0-7.78,6.81c-.36,3.58,2.22,6.84,6.16,7.77a6.21,6.21,0,0,1,.76.27v4.24a11.75,11.75,0,0,1-4.74-22.34,14.57,14.57,0,0,1,5.57-1.19c8.47-.12,16.94,0,25.41-.05,2.87,0,2.44.23,2.45-2.52q0-14.25,0-28.52v-1.69c25.46,4.6,52.22,30.33,50,66-2.32,38.06-35.43,61.89-66,60Z" transform="translate(-0.11 0.36)"/>
    <path class="cls-2" d="M531.94,511.2V479.75h2c10.12,0,20.24,0,30.35,0,4.74,0,8.18-3.63,7.62-8.14a7.7,7.7,0,0,0-1.54-3.69,4.26,4.26,0,0,1-1-3.07c0-1,0-2.06,0-3.54a37.26,37.26,0,0,1,3.27,2.33,11.85,11.85,0,0,1-8,20.6q-13.2,0-26.4,0h-1.83v33c-18.88-4.71-33.38-15-42.27-32-12.29-23.54-10.81-46.79,4.73-68.33,13-18,31.27-26.16,53.49-26.14v22.88h-1.49c-4.94,0-9.88,0-14.82,0a23.42,23.42,0,0,0-23.3,19.44c-2.37,12.32,6.45,25,18.84,27,1.2.19,2.42.31,3.73.47v4.49c-1.67-.2-3.38-.3-5-.62a27.89,27.89,0,0,1,.74-54.82,33.92,33.92,0,0,1,5-.36c3.9-.05,7.79,0,11.8,0V395.51c-23.09.08-51.39,17.81-56.39,50.22C486.37,478.64,508.63,504.34,531.94,511.2Z" transform="translate(-0.11 0.36)"/>
    <rect class="cls-2" x="539.66" y="437.91" width="5.98" height="33.67"/>
    <rect class="cls-2" x="549.23" y="437.91" width="5.81" height="33.67"/>
    <rect class="cls-2" x="558.81" y="437.91" width="5.98" height="33.67"/>
  </g>
</svg>
