<?xml version="1.0" encoding="utf-8"?>
<!-- Generator: Adobe Illustrator 18.1.1, SVG Export Plug-In . SVG Version: 6.00 Build 0)  -->
<svg version="1.1" id="Calque_1" xmlns="http://www.w3.org/2000/svg" xmlns:xlink="http://www.w3.org/1999/xlink" x="0px" y="0px"
	 viewBox="-407 188 48 48" enable-background="new -407 188 48 48" xml:space="preserve">
<g>
	<defs>
		<rect id="SVGID_1_" x="-407" y="188" width="48" height="48"/>
	</defs>
	<clipPath id="SVGID_2_">
		<use xlink:href="#SVGID_1_"  overflow="visible"/>
	</clipPath>
	<g clip-path="url(#SVGID_2_)">
		<path d="M-389,210.5V203c0-2.8,2.2-5,5-5s5,2.2,5,5v7.5c2.4-1.6,4-4.4,4-7.5c0-5-4-9-9-9s-9,4-9,9
			C-393,206.1-391.4,208.9-389,210.5z M-369.3,219.7l-9.1-4.5c-0.3-0.1-0.7-0.2-1.1-0.2h-1.5v-12c0-1.7-1.3-3-3-3s-3,1.3-3,3v21.5
			l-6.9-1.4c-0.2,0-0.3-0.1-0.5-0.1c-0.6,0-1.2,0.3-1.6,0.7l-1.6,1.6l9.9,9.9c0.5,0.5,1.3,0.9,2.1,0.9h13.6c1.5,0,2.7-1.1,2.9-2.6
			l1.5-10.5c0-0.1,0-0.3,0-0.4C-367.5,221.3-368.3,220.2-369.3,219.7z"/>
	</g>
</g>
</svg>
